<svg id="Layer_1" data-name="Layer 1" xmlns="http://www.w3.org/2000/svg" xmlns:xlink="http://www.w3.org/1999/xlink" viewBox="0 0 76.16 76.16"><defs><style>.cls-1{fill:none;}.cls-2{clip-path:url(#clip-path);}.cls-3{fill:#fff;}.cls-4{fill:#399ed9;fill-rule:evenodd;}</style><clipPath id="clip-path"><circle class="cls-1" cx="38.08" cy="38.08" r="38.08"/></clipPath></defs><title>svg_alipay</title><g class="cls-2"><circle class="cls-3" cx="38.08" cy="38.08" r="38.08"/><path class="cls-4" d="M54.15,44.92c-2-.68-4.74-1.71-7.75-2.8a40.78,40.78,0,0,0,4.21-10.63H40.66V27.91H52.85v-2H40.66v-6h-5a.85.85,0,0,0-.87.86v5.11H22.48v2H34.82v3.58H24.63v2H44.37a34.84,34.84,0,0,1-2.84,6.94c-6.4-2.12-13.24-3.83-17.54-2.77a10.11,10.11,0,0,0-5.55,3.15c-4.77,5.79-1.36,14.6,8.72,14.6,6,0,11.69-3.32,16.15-8.79C49.94,49.8,72.88,59.3,72.88,59.3l2.33-7s-13.8-5-21.07-7.41M26.22,52c-7.86,0-10.18-6.17-6.3-9.55a10,10,0,0,1,4.92-1.83c4.67-.45,9,1.33,14.08,3.81C35.35,49.11,30.79,52,26.22,52Z"/></g></svg>