<?xml version="1.0" encoding="UTF-8"?>
<svg width="24px" height="24px" viewBox="0 0 24 24" version="1.1" xmlns="http://www.w3.org/2000/svg" xmlns:xlink="http://www.w3.org/1999/xlink">
    <!-- Generator: Sketch 40.2 (33826) - http://www.bohemiancoding.com/sketch -->
    <title>phonesvg</title>
    <desc>Created with Sketch.</desc>
    <defs></defs>
    <g id="Symbols" stroke="none" stroke-width="1" fill="none" fill-rule="evenodd">
        <g id="phone" fill="#E81C59">
            <path d="M19.3704811,21.095386 C19.3704811,22.3337495 18.3627864,23.3414443 17.123726,23.3414443 L6.90531084,23.3414443 C5.66694736,23.3414443 4.65925259,22.3337495 4.65925259,21.095386 L4.65925259,2.90391707 C4.65925259,1.66555359 5.66694736,0.657858823 6.90531084,0.657858823 L17.123726,0.657858823 C18.3627864,0.657858823 19.3704811,1.66555359 19.3704811,2.90391707 L19.3704811,21.095386 Z M17.123726,0 L6.90531084,0 C5.30317373,0 4,1.30247684 4,2.90391707 L4,21.095386 C4,22.6968263 5.30317373,24 6.90531084,24 L17.123726,24 C18.7258631,24 20.02834,22.6968263 20.02834,21.095386 L20.02834,2.90391707 C20.02834,1.30247684 18.7258631,0 17.123726,0 L17.123726,0 Z M17.0812161,1.90946311 C17.0421905,1.89273788 16.9989837,1.88367839 16.9529893,1.88367839 L7.07674439,1.88367839 C7.03144691,1.88367839 6.98754319,1.89273788 6.94851767,1.90946311 C6.58962223,1.96660763 6.31574668,2.24048317 6.25860217,2.59937861 C6.24118006,2.63910102 6.23212056,2.68161096 6.23212056,2.72760533 L6.23212056,17.5029472 C6.23212056,17.5482447 6.24118006,17.5914516 6.25860217,17.6304771 C6.31574668,17.9900694 6.58962223,18.2646418 6.94851767,18.3217863 C6.98754319,18.3378147 7.03144691,18.3475711 7.07674439,18.3475711 L17.4686838,18.3475711 C17.6498737,18.3475711 17.7976132,18.1998316 17.7976132,18.0179448 C17.7976132,17.836058 17.6498737,17.6883185 17.4686838,17.6883185 L7.07674439,17.6883185 C6.97430239,17.6883185 6.89137315,17.6053892 6.89137315,17.5029472 L6.89137315,2.72760533 C6.89137315,2.62516333 6.97430239,2.5422341 7.07674439,2.5422341 L16.9529893,2.5422341 C17.0561282,2.5422341 17.1390575,2.62516333 17.1390575,2.72760533 L17.1390575,15.7684021 C17.1390575,15.9502889 17.2867969,16.0980284 17.4686838,16.0980284 C17.6498737,16.0980284 17.7976132,15.9502889 17.7976132,15.7684021 L17.7976132,2.72760533 C17.7976132,2.68161096 17.7878568,2.63910102 17.7718285,2.59937861 C17.7146839,2.24048317 17.4401115,1.96660763 17.0812161,1.90946311 L17.0812161,1.90946311 Z M17.3906327,20.6647115 L14.4490839,20.6647115 C14.267894,20.6647115 14.1201545,20.8117541 14.1201545,20.9936409 C14.1201545,21.1755277 14.267894,21.3225703 14.4490839,21.3225703 L17.3906327,21.3225703 C17.5732164,21.3225703 17.720259,21.1755277 17.720259,20.9936409 C17.720259,20.8117541 17.5732164,20.6647115 17.3906327,20.6647115 L17.3906327,20.6647115 Z M11.9765382,21.6264119 C11.6280961,21.6264119 11.3437672,21.3420831 11.3437672,20.9936409 C11.3437672,20.6451988 11.6280961,20.3622637 11.9765382,20.3622637 C12.3249804,20.3622637 12.6086123,20.6451988 12.6086123,20.9936409 C12.6086123,21.3420831 12.3249804,21.6264119 11.9765382,21.6264119 L11.9765382,21.6264119 Z M11.9765382,19.703708 C11.2643224,19.703708 10.6852115,20.2828189 10.6852115,20.9936409 C10.6852115,21.7058567 11.2643224,22.2849676 11.9765382,22.2849676 C12.6880571,22.2849676 13.267168,21.7058567 13.267168,20.9936409 C13.267168,20.2828189 12.6880571,19.703708 11.9765382,19.703708 L11.9765382,19.703708 Z M9.50329568,20.6647115 L6.56174686,20.6647115 C6.37986004,20.6647115 6.23212056,20.812451 6.23212056,20.9936409 C6.23212056,21.1755277 6.37986004,21.3232672 6.56174686,21.3232672 L9.50329568,21.3232672 C9.6851825,21.3232672 9.83222509,21.1755277 9.83222509,20.9936409 C9.83222509,20.812451 9.6851825,20.6647115 9.50329568,20.6647115 L9.50329568,20.6647115 Z" id="Fill-1"></path>
        </g>
    </g>
</svg>