<?xml version="1.0" encoding="UTF-8"?>
<svg width="25px" height="25px" viewBox="0 0 25 25" version="1.1" xmlns="http://www.w3.org/2000/svg" xmlns:xlink="http://www.w3.org/1999/xlink">
    <!-- Generator: Sketch 40.2 (33826) - http://www.bohemiancoding.com/sketch -->
    <title>history_record</title>
    <desc>Created with Sketch.</desc>
    <defs></defs>
    <g id="Symbols" stroke="none" stroke-width="1" fill="none" fill-rule="evenodd">
        <g id="history_record" fill="#ECC890">
            <path d="M18.9307,2.1372 C18.5627,1.8892 18.0647,1.9872 17.8167,2.3532 C17.5687,2.7202 17.6647,3.2192 18.0327,3.4672 C20.7647,5.3132 22.3957,8.3812 22.3957,11.6732 C22.3957,17.1292 17.9557,21.5692 12.4997,21.5692 C7.0437,21.5692 2.6047,17.1292 2.6047,11.6732 C2.6047,8.3812 4.2357,5.3132 6.9677,3.4672 C7.3347,3.2192 7.4317,2.7202 7.1837,2.3532 C6.9357,1.9872 6.4367,1.8892 6.0697,2.1372 C2.8957,4.2832 0.9997,7.8472 0.9997,11.6732 C0.9997,18.0142 6.1597,23.1732 12.4997,23.1732 C18.8407,23.1732 23.9997,18.0142 23.9997,11.6732 C23.9997,7.8472 22.1047,4.2832 18.9307,2.1372 M11.6667,13.4102 C11.6717,13.4372 11.6777,13.4612 11.6847,13.4872 C11.6917,13.5112 11.6987,13.5352 11.7067,13.5592 C11.7167,13.5842 11.7277,13.6082 11.7407,13.6322 C11.7507,13.6552 11.7627,13.6772 11.7757,13.6982 C11.7887,13.7202 11.8047,13.7412 11.8207,13.7622 C11.8357,13.7832 11.8517,13.8022 11.8687,13.8222 C11.8877,13.8412 11.9067,13.8582 11.9257,13.8752 C11.9447,13.8922 11.9637,13.9082 11.9847,13.9242 C12.0077,13.9412 12.0327,13.9552 12.0567,13.9702 C12.0717,13.9782 12.0827,13.9892 12.0977,13.9952 L17.4467,16.6702 C17.5617,16.7282 17.6847,16.7552 17.8047,16.7552 C18.0987,16.7552 18.3817,16.5922 18.5227,16.3112 C18.7207,15.9142 18.5607,15.4332 18.1637,15.2352 L13.2587,12.7822 L13.2587,7.9292 C13.2587,7.4862 12.8997,7.1272 12.4557,7.1272 C12.0127,7.1272 11.6547,7.4862 11.6547,7.9292 L11.6547,13.2782 C11.6547,13.2942 11.6587,13.3092 11.6597,13.3252 C11.6607,13.3542 11.6627,13.3822 11.6667,13.4102" id="Fill-1"></path>
        </g>
    </g>
</svg>