<svg xmlns="http://www.w3.org/2000/svg" width="25" height="25" viewBox="0 0 25 25">
  <path fill-rule="evenodd" d="M12.5,1 C6.15891235,1 1,6.15832275 1,12.5 C1,18.8416772 6.15891235,24 12.5,24 C18.8410876,24 24,18.8410876 24,12.5 C24,6.15891235 18.8410876,1 12.5,1 Z M12.5,23.3784216 C6.50161011,23.3784216 1.62157837,18.4978284 1.62157837,12.5 C1.62157837,6.50217163 6.50161011,1.62157837 12.5,1.62157837 C18.4983899,1.62157837 23.3784216,6.50161011 23.3784216,12.5 C23.3784216,18.4983899 18.4983899,23.3784216 12.5,23.3784216 Z M12.5,15.2191772 C12.8202649,15.2191772 13.0790149,14.9598376 13.0784534,14.6407239 L13.0784534,7.38996826 C13.0784534,7.07085449 12.8197034,6.81151489 12.5,6.81151489 C12.1802966,6.81151489 11.9215466,7.07026489 11.9215466,7.38996826 L11.9215466,14.6407239 C11.9215466,14.9598376 12.1802966,15.2191772 12.5,15.2191772 Z M11.7260522,17.4150989 C11.7260522,17.8425305 12.0725684,18.1890466 12.5,18.1890466 C12.9274316,18.1890466 13.2739478,17.8425305 13.2739478,17.4150989 C13.2739478,16.9876672 12.9274316,16.6411511 12.5,16.6411511 C12.0725684,16.6411511 11.7260522,16.9876672 11.7260522,17.4150989 Z"/>
</svg>
