<?xml version="1.0" encoding="utf-8"?>
<!-- Generator: Adobe Illustrator 17.0.0, SVG Export Plug-In . SVG Version: 6.00 Build 0)  -->
<!DOCTYPE svg PUBLIC "-//W3C//DTD SVG 1.1//EN" "http://www.w3.org/Graphics/SVG/1.1/DTD/svg11.dtd">
<svg version="1.1" id="图层_1" xmlns="http://www.w3.org/2000/svg" xmlns:xlink="http://www.w3.org/1999/xlink" x="0px" y="0px"
	 width="25px" height="25px" viewBox="0 0 25 25" enable-background="new 0 0 25 25" xml:space="preserve">
<g>
	<g>
		<path fill="#DBDCDC" d="M12.499,0.999C6.158,0.999,1,6.158,1,12.499c0,6.343,5.158,11.503,11.499,11.503
			c6.342,0,11.501-5.16,11.501-11.503C24,6.158,18.841,0.999,12.499,0.999z M12.499,22.848c-5.704,0-10.345-4.642-10.345-10.349
			c0-5.705,4.641-10.346,10.345-10.346c5.705,0,10.347,4.641,10.347,10.346C22.846,18.205,18.204,22.848,12.499,22.848z
			 M13.284,12.681l3.71-3.711c0.225-0.225,0.225-0.59,0-0.816s-0.59-0.225-0.816,0l-3.71,3.711l-3.71-3.711
			c-0.225-0.225-0.59-0.225-0.816,0s-0.225,0.59,0,0.816l3.711,3.711l-3.711,3.712c-0.225,0.225-0.225,0.59,0,0.816
			c0.113,0.113,0.26,0.169,0.408,0.169s0.295-0.056,0.408-0.169l3.71-3.712l3.711,3.712c0.113,0.113,0.26,0.169,0.408,0.169
			s0.295-0.056,0.408-0.169c0.225-0.225,0.225-0.59,0-0.816L13.284,12.681z"/>
	</g>
</g>
</svg>
