<?xml version="1.0" encoding="UTF-8"?>
<svg width="24px" height="24px" viewBox="0 0 24 24" version="1.1" xmlns="http://www.w3.org/2000/svg" xmlns:xlink="http://www.w3.org/1999/xlink">
    <!-- Generator: Sketch 40.2 (33826) - http://www.bohemiancoding.com/sketch -->
    <title>circle_info</title>
    <desc>Created with Sketch.</desc>
    <defs></defs>
    <g id="Symbols" stroke="none" stroke-width="1" fill="none" fill-rule="evenodd">
        <g id="circle_info" fill="#CF9B5D">
            <path d="M12.0013794,23.5 C5.65984967,23.5 0.5,18.3410699 0.5,11.9995402 C0.5,5.65893007 5.65984967,0.5 12.0013794,0.5 C18.3429091,0.5 23.5,5.65893007 23.5,11.9995402 C23.5,18.3410699 18.3419895,23.5 12.0013794,23.5 L12.0013794,23.5 Z M12.0013794,1.38005278 C6.14631562,1.38005278 1.38005278,6.14447643 1.38005278,12.0004598 C1.38005278,17.8555236 6.14539603,22.6199472 12.0013794,22.6199472 C17.8573628,22.6199472 22.6199472,17.8555236 22.6199472,12.0004598 C22.6199472,6.14447643 17.8564432,1.38005278 12.0013794,1.38005278 L12.0013794,1.38005278 Z M15.1647875,8.30828435 L14.7813162,8.69175563 L14.302207,8.97958898 L13.7265403,8.97958898 L13.2474311,8.88303147 L12.8639599,8.59519811 L12.672684,8.21172684 L12.5770461,7.63606013 L12.672684,7.34822678 L12.7674023,7.15787054 L13.1508736,6.67876135 L13.6309024,6.48748551 L13.9178162,6.39092799 L14.2056495,6.39092799 L14.6856783,6.58312343 L15.0691496,6.87095678 L15.261345,7.25442805 L15.3569829,7.73353724 L15.261345,8.0213706 L15.1647875,8.30828435 L15.1647875,8.30828435 Z M13.5343449,11.8560833 C12.90902,13.1076526 12.3370317,14.3950862 11.6169885,15.5951581 C11.3135221,16.1800208 11.5397425,16.6048739 12.1926552,16.1708248 C12.6653273,15.777238 13.1389189,15.3891688 13.6309024,15.020411 L13.7265403,15.1169685 L13.7265403,15.4048019 L13.6309024,15.5960777 L13.343069,15.979549 L12.8630403,16.3630203 L12.2882932,16.7464915 L11.7126264,17.1299628 L11.0413218,17.4177962 L10.2743793,17.6099916 L9.60399424,17.6099916 L9.21960337,17.5125145 L8.8361321,17.3212387 L8.64485626,16.9377674 L8.64485626,16.5542961 L8.8361321,15.786434 L9.12396546,15.0194914 L9.69963216,13.9647155 L11.2344368,10.9925833 L11.3300748,10.8013074 L11.3300748,10.7047499 C11.327316,10.4196753 10.9291312,10.4739315 10.5631322,10.7047499 L9.98746552,11.1838591 L9.50835632,11.6638879 L9.31708048,11.8551637 L9.12396546,11.8551637 L9.02832754,11.7595258 L8.93268962,11.56825 L9.12396546,11.2804166 L9.41179881,10.9925833 L10.0831034,10.4169166 L10.7534885,10.0334453 L11.4247931,9.74561193 C13.2584663,9.22328176 14.4006037,10.1244852 13.5343449,11.8560833 L13.5343449,11.8560833 Z" id="Shape"></path>
        </g>
    </g>
</svg>