<svg id="Layer_1" data-name="Layer 1" xmlns="http://www.w3.org/2000/svg" viewBox="0 0 25 25"><defs><style>.cls-1{fill-rule:evenodd;}</style></defs><title>svg_customer_service</title><path class="cls-1" d="M20.08,8.69A8.54,8.54,0,0,0,11.49.91a8.55,8.55,0,0,0-8.6,7.78A3.53,3.53,0,0,0,0,12.12v1.4A3.55,3.55,0,0,0,3.58,17H5.07l.67-.84V9.33L5,8.62H4.34a7.29,7.29,0,0,1,7.15-6.5,7.29,7.29,0,0,1,7.15,6.5h-.72l-.68.71v6.9l.64.8h.76A6.07,6.07,0,0,1,14,21.92a1.73,1.73,0,0,0-1.71-1c-1,0-1.87.42-1.87,1.29a1.9,1.9,0,0,0,1.87,1.72,1.85,1.85,0,0,0,1.5-.72A7.81,7.81,0,0,0,20,17a3.53,3.53,0,0,0,3-3.46v-1.4A3.53,3.53,0,0,0,20.08,8.69ZM4.3,12.36v3.27H3.22A2.2,2.2,0,0,1,1.31,13.3v-.94A2.2,2.2,0,0,1,3.22,10H4.3Zm8,10.87a1.05,1.05,0,0,1-1.14-1c0-.64.52-.7,1.14-.7s1,.21,1,.78S12.94,23.22,12.33,23.22Zm9.28-9.93a2.16,2.16,0,0,1-1.85,2.33H18.67V10h1.08a2.16,2.16,0,0,1,1.85,2.33Z"/></svg>