<?xml version="1.0" encoding="utf-8"?>
<!-- Generator: Adobe Illustrator 17.0.0, SVG Export Plug-In . SVG Version: 6.00 Build 0)  -->
<!DOCTYPE svg PUBLIC "-//W3C//DTD SVG 1.1//EN" "http://www.w3.org/Graphics/SVG/1.1/DTD/svg11.dtd">
<svg version="1.1" id="图层_1" xmlns="http://www.w3.org/2000/svg" xmlns:xlink="http://www.w3.org/1999/xlink" x="0px" y="0px"
	 width="25px" height="25px" viewBox="0 0 25 25" enable-background="new 0 0 25 25" xml:space="preserve">
<g>
	<g>
		<path fill="#FF0808" d="M23.62,4.867l-0.564-0.755l-1.132-0.567l-1.318-0.187l-0.377,0.187l-0.187,0.192l0.187,0.375h0.377
			l0.944,0.187l0.753,0.38l0.377,0.375l0.187,0.567v13.764l-0.187,0.562l-0.377,0.567l-0.753,0.187l-0.944,0.187H4.394l-0.941-0.187
			l-0.755-0.187l-0.38-0.567l-0.187-0.562V5.621l0.187-0.567l0.38-0.375l0.755-0.38l0.941-0.187h0.375l0.192-0.375L4.769,3.545
			L4.394,3.358L3.072,3.545L1.943,4.112L1.19,4.867L1,5.246V19.76l0.19,0.375l0.754,0.754l1.129,0.566l1.322,0.187h16.211
			l1.318-0.187l1.132-0.566l0.564-0.754L24,19.76V5.246L23.62,4.867z M6.467,7.696h12.066l0.374-0.187l0.19-0.193l-0.19-0.375H6.09
			L5.903,7.316L6.09,7.509L6.467,7.696z M18.533,10.713l0.374-0.192l0.19-0.187l-0.19-0.187l-0.374-0.187H6.467l-0.564,0.187v0.375
			l0.564,0.192H18.533z M19.097,13.351l-0.19-0.187l-0.374-0.192H6.277l-0.375,0.192v0.562h13.005L19.097,13.351z M6.467,16.929
			H18.72l0.377-0.187V16.18H6.09l-0.187,0.375l0.187,0.188L6.467,16.929z"/>
	</g>
</g>
</svg>
