<?xml version="1.0" encoding="utf-8"?>
<!-- Generator: Adobe Illustrator 17.0.0, SVG Export Plug-In . SVG Version: 6.00 Build 0)  -->
<!DOCTYPE svg PUBLIC "-//W3C//DTD SVG 1.1//EN" "http://www.w3.org/Graphics/SVG/1.1/DTD/svg11.dtd">
<svg version="1.1" id="图层_1" xmlns="http://www.w3.org/2000/svg" xmlns:xlink="http://www.w3.org/1999/xlink" x="0px" y="0px"
	 width="25px" height="25px" viewBox="0 0 25 25" enable-background="new 0 0 25 25" xml:space="preserve">
<g>
	<g>
		<path fill="#E21A1A" d="M22.862,0.445H3.594c-0.628,0-1.138,0.51-1.138,1.138c0,0.176-0.142,0.318-0.317,0.318
			C1.51,1.902,1,2.412,1,3.039V5.95c0,0.627,0.51,1.137,1.138,1.137c0.175,0,0.317,0.143,0.317,0.318v10.189
			c0,0.176-0.142,0.318-0.317,0.318C1.51,17.913,1,18.423,1,19.051v2.911c0,0.627,0.51,1.137,1.138,1.137
			c0.175,0,0.317,0.142,0.317,0.317c0,0.628,0.51,1.138,1.138,1.138h19.268c0.628,0,1.138-0.51,1.138-1.138V1.583
			C24,0.955,23.49,0.445,22.862,0.445z M23.18,23.417c0,0.176-0.143,0.318-0.318,0.318H3.594c-0.173,0-0.318-0.146-0.318-0.318
			c0-0.627-0.51-1.137-1.137-1.137c-0.173,0-0.318-0.145-0.318-0.317v-2.911c0-0.172,0.145-0.318,0.318-0.318
			c0.627,0,1.137-0.51,1.137-1.138V7.406c0-0.628-0.51-1.138-1.137-1.138c-0.173,0-0.318-0.145-0.318-0.317V3.039
			c0-0.175,0.143-0.317,0.318-0.317c0.627,0,1.137-0.51,1.137-1.138c0-0.172,0.145-0.318,0.318-0.318h19.268
			c0.173,0,0.318,0.146,0.318,0.318V23.417z M20.326,2.897H5.784c-0.61,0-1.105,0.498-1.105,1.111v16.985
			c0,0.612,0.496,1.11,1.105,1.11h14.542c0.61,0,1.106-0.498,1.106-1.11V4.008C21.433,3.395,20.936,2.897,20.326,2.897z
			 M20.613,11.477h-5.441c0.078-0.26,0.133-0.53,0.133-0.815s-0.055-0.555-0.133-0.815h5.442V11.477z M20.613,9.026h-5.719
			c-0.033,0-0.063,0.011-0.094,0.019c-0.516-0.75-1.379-1.244-2.357-1.244c-1.578,0-2.862,1.283-2.862,2.86
			c0,1.578,1.284,2.862,2.862,2.862c0.978,0,1.841-0.495,2.357-1.245c0.031,0.007,0.06,0.019,0.094,0.019h5.719v8.696
			c0,0.16-0.128,0.29-0.286,0.29H5.784c-0.157,0-0.285-0.13-0.285-0.29V4.008c0-0.16,0.128-0.291,0.285-0.291h14.542
			c0.155,0,0.286,0.133,0.286,0.291V9.026z M14.484,10.661c0,1.126-0.915,2.042-2.041,2.042s-2.042-0.916-2.042-2.042
			c0-1.125,0.916-2.04,2.042-2.04S14.484,9.536,14.484,10.661z"/>
	</g>
</g>
</svg>
