<?xml version="1.0" encoding="UTF-8"?>
<svg width="24px" height="24px" viewBox="0 0 24 24" version="1.1" xmlns="http://www.w3.org/2000/svg" xmlns:xlink="http://www.w3.org/1999/xlink">
    <!-- Generator: Sketch 40.2 (33826) - http://www.bohemiancoding.com/sketch -->
    <title>lockersvg</title>
    <desc>Created with Sketch.</desc>
    <defs></defs>
    <g id="Symbols" stroke="none" stroke-width="1" fill="none" fill-rule="evenodd">
        <g id="locker" fill="#E81C59">
            <path d="M13.4904193,16.8181656 C13.4803824,16.8254651 13.4739953,16.835502 13.4657833,16.8428016 C13.4457095,16.8583132 13.430198,16.8747372 13.413774,16.8929861 C13.4000873,16.9103225 13.3891379,16.927659 13.3781886,16.9468203 C13.3672393,16.9659817 13.3581148,16.9860555 13.3517277,17.0079541 C13.3444281,17.0298528 13.3407784,17.0526639 13.338041,17.0763875 C13.3371286,17.0891617 13.3307415,17.1001111 13.3307415,17.1119729 L13.3307415,19.0892411 L11.5843218,19.0892411 L11.5843218,17.0672631 C11.5843218,17.0572262 11.5788471,17.0481017 11.5779347,17.0371524 C11.5761098,17.0143413 11.5706351,16.9906177 11.5651605,16.968719 C11.5578609,16.9477328 11.5514738,16.9267465 11.5414369,16.9084976 C11.5314,16.8884239 11.5186258,16.8710874 11.5040267,16.8528385 C11.49034,16.8345896 11.4748284,16.8181656 11.4565795,16.8017416 C11.4483675,16.7962669 11.4447177,16.7871425 11.4355933,16.7807553 C10.9392232,16.4331138 10.6426786,15.8664855 10.6426786,15.2651843 C10.6426786,14.2450708 11.4720911,13.4156583 12.4912921,13.4156583 C13.5104931,13.4156583 14.3399056,14.2450708 14.3399056,15.2651843 C14.3399056,15.8929464 14.0223747,16.4741738 13.4904193,16.8181656 L13.4904193,16.8181656 Z M12.4912921,12.7158131 C11.0861269,12.7158131 9.94283334,13.8591066 9.94283334,15.2651843 C9.94283334,16.0270758 10.2995993,16.736958 10.885389,17.2196414 L10.885389,19.4387075 C10.885389,19.6321458 11.0414171,19.7890864 11.233943,19.7890864 L13.6811203,19.7890864 C13.8736462,19.7890864 14.0305867,19.6321458 14.0305867,19.4387075 L14.0305867,17.2716507 C14.6574364,16.7898798 15.0388384,16.0617487 15.0388384,15.2651843 C15.0388384,13.8591066 13.8964573,12.7158131 12.4912921,12.7158131 L12.4912921,12.7158131 Z M22.2873011,20.9770897 C22.2873011,21.9816916 21.4679256,22.8001547 20.4624112,22.8001547 L4.5229103,22.8001547 C3.51739596,22.8001547 2.69984528,21.9816916 2.69984528,20.9770897 L2.69984528,12.120899 C2.69984528,11.1153846 3.51739596,10.2978339 4.5229103,10.2978339 L20.4624112,10.2978339 C21.4679256,10.2978339 22.2873011,11.1153846 22.2873011,12.120899 L22.2873011,20.9770897 Z M6.15983655,7.37253541 C6.15983655,3.96911572 8.92819455,1.20075773 12.3307018,1.20075773 L12.6518824,1.20075773 C16.0553021,1.20075773 18.8236601,3.96911572 18.8236601,7.37253541 L18.8236601,9.59707621 L6.15983655,9.59707621 L6.15983655,7.37253541 Z M20.4624112,9.59707621 L19.5225929,9.59707621 L19.5225929,7.37253541 C19.5225929,3.58315151 16.4403539,0.5 12.6518824,0.5 L12.3307018,0.5 C8.54223033,0.5 5.45999127,3.58315151 5.45999127,7.37253541 L5.45999127,9.59707621 L4.5229103,9.59707621 C3.13143175,9.59707621 2,10.7294204 2,12.120899 L2,20.9770897 C2,22.3676558 3.13143175,23.5 4.5229103,23.5 L20.4624112,23.5 C21.8538898,23.5 22.986234,22.3676558 22.986234,20.9770897 L22.986234,12.120899 C22.986234,10.7294204 21.8538898,9.59707621 20.4624112,9.59707621 L20.4624112,9.59707621 Z" id="Fill-1"></path>
        </g>
    </g>
</svg>